<svg xmlns="http://www.w3.org/2000/svg" viewBox="0 0 711.29 977.3"><path d="M687.75,111.17c-30.59,21.94-89.08,51.84-164.35,33.3C393,112.34,355.64,0,355.64,0S318.32,112.36,187.89,144.47C112.59,163,54.1,133.1,23.55,111.17H0V717c0,15.33,3.74,45.49,28.6,75.68,30.69,37.28,82.75,61.46,154.69,71.86,57.32,8.29,99.69,26.3,129.57,55.06,21.95,21.14,42.78,57.73,42.78,57.73s21.63-37.36,42.79-57.72c29.88-28.76,72.28-46.77,129.57-55.07,72-10.39,124-34.57,154.7-71.86,24.84-30.17,28.57-60.36,28.59-75.68V111.17Z" fill="#fff"/><path d="M690,134.79s-71.29,55.49-171.73,30.39c-117.09-29.26-162.58-117-162.58-117s-45.48,87.7-162.57,117C92.64,190.28,21.34,134.79,21.34,134.79V716.94c0,19.78,8.29,103.8,165,126.45,61.88,9,108.1,28.85,141.31,60.8a190,190,0,0,1,28,33.88,191.35,191.35,0,0,1,28-33.88c33.24-32,79.46-51.84,141.34-60.8,156.71-22.65,165-106.67,165-126.45V134.79Z" fill="#013369"/><path d="M355.64,878.81s45.49-56.06,163.68-74.3c135.38-20.89,131.36-84.45,131.37-87.67V412H60.61V716.83c0,3.21-4,66.78,131.36,87.68C310.16,822.75,355.64,878.81,355.64,878.81Z" fill="#fff"/><path d="M218.1,634.78l0-145-18.21-10.2V442h82.87v37.6l-17.33,10.2V785.54l-44.29-13.27-64-188.93V707.89l20.33,15.62v38.38L88.51,739.3V706.58l20.34-8V489.9L88,479.58V442h67.28Z" fill="#d50a0a"/><path d="M370.63,767.38l17.74,21.26v37.59l-88.06-32.9V761.42l19.44-8V489.78L300.43,480V442H453.34V518.5H419.73l-10.19-31.41H370.63v88.47h29.2l11.5-16.8h23.43v78.73H411.33l-11.07-15.92H370.63V767.38Z" fill="#d50a0a"/><path d="M467.84,780.69V743.1l21.87-18V489.78L471,480V442h88.18v38l-17.33,9.77V710.6l37.89-10.24L587,642.49h36.24v96.68Z" fill="#d50a0a"/><path d="M76,349.58,49.26,329.5H81.87l10.77-30.9,10.77,30.9H136l-26.69,20.09L119.16,381,92.64,362.32,66.13,381Z" fill="#fff"/><path d="M191.73,349.58,165.05,329.5h32.61l10.76-30.9,10.77,30.9h32.62l-26.68,20.09L234.94,381l-26.52-18.63L181.91,381Z" fill="#fff"/><path d="M76,245.09,49.26,225H81.87l10.77-30.9L103.41,225H136l-26.69,20.08,9.82,31.36L92.64,257.82,66.13,276.45Z" fill="#fff"/><path d="M191.73,245.09,165.05,225h32.61l10.76-30.9L219.19,225h32.62l-26.68,20.08,9.81,31.36-26.52-18.63-26.51,18.63Z" fill="#fff"/><path d="M645.17,381l-26.52-18.64L592.14,381,602,349.58,575.27,329.5h32.61l10.77-30.9,10.77,30.9H662l-26.68,20.08Z" fill="#fff"/><path d="M529.38,381l-26.51-18.64L476.35,381l9.82-31.37L459.48,329.5H492.1l10.77-30.9,10.76,30.9h32.62l-26.69,20.08Z" fill="#fff"/><path d="M645.17,276.45l-26.52-18.63-26.51,18.63L602,245.09,575.27,225h32.61l10.77-30.89L629.42,225H662l-26.68,20.09Z" fill="#fff"/><path d="M529.38,276.45l-26.51-18.63-26.52,18.63,9.82-31.36L459.48,225H492.1l10.77-30.89L513.63,225h32.62l-26.69,20.09Z" fill="#fff"/><path d="M429.16,161.26s-13.83,7.2-33.11,26.17a92.26,92.26,0,0,1,12.05,8.23c-2.91,2.59-5.89,5.37-8.66,8a90.44,90.44,0,0,0-35.74-18.07c3.36-2.4,6.93-4.77,10.45-7.07A94.64,94.64,0,0,1,384.86,182c21.79-16.59,40.63-23.74,40.63-23.74s-2.18-1.07-8-1c-85.65,1.11-164.57,65.06-149.67,174.48,1.59,11.6,6.1,32.71,11.83,42,1.92-18.21,8.75-58.5,29.06-101.67a88,88,0,0,0-12.92-3.58c2.08-4.35,5-9.89,5-9.89a90.31,90.31,0,0,1,39.8,18.23c-2.76,4.45-4.63,7.36-5.94,9.66a91.32,91.32,0,0,0-12.59-8.4,352.66,352.66,0,0,0-37.71,97.32c.23,1.21,2.72,1.84,4.72,1.58,93.85-12.14,137.79-60,151.16-111.9,8.8-34,5.92-69.62-5.86-98.64C433.5,164.41,431.89,161,429.16,161.26Zm-80.7,103.36A89.62,89.62,0,0,0,308,245.55s4.29-7,6.72-10.63a90.84,90.84,0,0,1,40.66,19.58C352.93,258.07,350.57,261.48,348.46,264.62ZM363.87,243a91,91,0,0,0-40.69-19.71c2.38-3.08,5.18-6.36,7.86-9.39,11.9,2.12,27.17,8.39,40.49,19.38C368.8,236.51,366.26,239.83,363.87,243ZM381,222.34a91.54,91.54,0,0,0-39.35-19.13c3.42-3.24,6.93-6,10-8.59a90.86,90.86,0,0,1,37.69,18.91C386.49,216.5,383.68,219.39,381,222.34Z" fill="#fff"/></svg>